<svg width="245" height="299" viewBox="0 0 245 299" fill="none" xmlns="http://www.w3.org/2000/svg">
<path d="M104 290.4C75.9001 277 62.0001 270.4 54.8001 267C48.3001 264.1 45.4001 262.1 50.3001 263.9C53.9001 265.3 84.0001 277.6 103.3 285.6C113.2 289.7 121.8 293 122.6 293C123.4 293 140.4 285.8 160.5 277C180.5 268.2 197.3 261 197.7 261.1C198.8 261.1 123.7 298.9 122.5 298.9C122 298.8 113.6 295.1 104 290.4Z" fill="#77A97D"/>
<path d="M219 231.6C219 227.8 217.5 226.1 215.7 227.9C214.2 229.4 206.9 229.2 204.8 227.7C202.1 225.6 201.5 220.7 202.2 206.9C203 191 203.9 189 210.4 189C212.8 189 215.2 189.6 215.8 190.3C218.7 193.8 218.4 206 215.3 206C214 206 213.8 205.1 214.3 200.1C214.8 195.4 214.6 193.8 213.4 192.5C212 191.2 208.7 191.2 207.2 192.5C206 193.6 205 202.1 205 211.7C205 223.8 205.8 226 210.5 226C213.1 226 214 224.3 214 219.5C214 216.6 213.6 216.1 210.9 215.5C206.3 214.5 208 212.5 213.4 212.6C218.6 212.6 220.3 214.1 219.6 217.9C219.4 219.2 220 223.6 221 227.6C222.7 234.8 222.7 235 220.9 235C219.4 235 219 234.2 219 231.6Z" fill="#77A97D"/>
<path d="M155.5 233C150.7 231.1 149 224.6 149 208C149 196.5 149.1 195.8 151.5 193.5C154.8 190.1 161.3 190 163.4 193.3C165.1 196 165.3 198.6 165.1 215.6C165 226.6 164.7 229.1 163.3 230.8C161.1 233.3 158.2 234.1 155.5 233ZM160.1 228.3C161.8 226.4 162.6 205.7 161.3 199.6C160.2 194.4 157.7 192.8 155.1 195.5C153 197.7 152.6 200.5 152.9 215.1C153 223.2 153.3 225.2 155.1 227.4C157.5 230.4 158.3 230.6 160.1 228.3Z" fill="#77A97D"/>
<path d="M61.8999 232.3C61.6999 231.9 61.5999 222.4 61.7999 211.3C61.9999 194.4 62.2999 191 63.4999 191C64.6999 191 64.9999 194.3 65.1999 210.3L65.4999 229.5L72.2999 229.2C78.4999 228.8 79.0999 229 78.7999 230.6C78.5999 232.1 77.1999 232.4 70.3999 232.8C65.8999 233 62.0999 232.8 61.8999 232.3Z" fill="#77A97D"/>
<path d="M172.6 230.8C172.3 229.5 172 220.1 172 209.8V191H178.9C185.2 191 186.1 191.3 187.9 193.6C190.6 197.1 191.6 204.3 190.1 211.1C189 216.6 189.1 216.9 192.6 224C194.9 228.8 195.8 231.6 195.2 232.2C193.6 233.8 192.1 232.3 189.1 225.6C187.5 222.1 185.9 219.1 185.4 218.8C184.9 218.5 182.6 218.5 180.3 218.8C176.1 219.2 176 219.3 176 223C176 231.1 174 235.7 172.6 230.8ZM184.4 213.7C188.2 210.9 188.1 198.2 184.3 195.3C183.4 194.6 181.1 194 179.3 194H176V204.5V215H179.3C181.1 215 183.4 214.4 184.4 213.7Z" fill="#77A97D"/>
<path d="M10.6002 226.8C10.3002 223.9 10.0002 215.6 10.0002 208.3V195.1L5.30018 194.8C1.70018 194.6 0.400171 194.1 0.200171 192.8C-0.0998294 191.2 0.900167 191 11.4002 191C22.3002 191 23.0002 191.1 23.0002 193C23.0002 194.7 22.3002 195 18.5002 195H14.0002V211.9C14.0002 221.2 13.7002 229.5 13.4002 230.4C12.3002 233.3 11.3002 232 10.6002 226.8Z" fill="#77A97D"/>
<path d="M33.0002 226.1C33.0002 220.4 32.9002 220.1 30.3002 219.8C26.6002 219.4 26.3002 217.4 30.0002 216.7L33.0002 216.1V207.1C33.0002 197.1 34.0002 193.8 37.7002 192.1C41.5002 190.4 43.4002 190.8 46.4002 193.9C49.4002 197 50.9002 202 51.0002 208.7C51.0002 212.5 51.2002 212.9 53.8002 213.2C57.4002 213.6 57.4002 216.4 53.8002 216.8C51.2002 217.1 51.1002 217.3 50.8002 224.3C50.6002 229.9 50.2002 231.5 49.0002 231.5C47.9002 231.5 47.4002 229.8 47.0002 224.5C46.5002 217.7 46.4002 217.5 44.0002 217.8C37.2002 218.5 37.0002 218.7 37.0002 223.9C37.0002 229.8 36.3002 232 34.4002 232C33.4002 232 33.0002 230.5 33.0002 226.1ZM43.9002 214.4C46.9002 213.8 47.0002 213.6 47.0002 208.6C47.0002 201.9 44.4002 196.5 41.0002 196.5C38.0002 196.5 37.2002 198.9 37.1002 208.3C37.0002 215.7 37.1002 215.7 43.9002 214.4Z" fill="#77A97D"/>
<path d="M86.5 230.8C86.3 230.1 85.9 221.1 85.8 210.7L85.5 192H94.3C101.4 192 103 192.3 103 193.5C103 194.7 101.6 195 96 195H89V204.6V214.2L91.8 213.6C102.1 211.6 105.8 213.8 95.8 216.1L89.5 217.5V223V228.5L95.8 228.8C100.4 229 102 229.5 102 230.5C102 232.5 87.2 232.7 86.5 230.8Z" fill="#77A97D"/>
<path d="M127 213.6C127 196.1 126.9 195.2 125 194.7C120.5 193.5 123.6 192.2 132.5 191.5C142.2 190.8 144 191.1 144 193.6C144 194.7 142.4 195 137 195H129.9L130.2 203.8C130.5 213.3 130.2 212.9 137 211.9C138.7 211.6 139.5 212 139.5 213C139.5 214 138.3 214.6 136 214.8C130.6 215.3 130 216.4 130 224.6C130 230.5 129.7 232 128.5 232C127.2 232 127 229.3 127 213.6Z" fill="#77A97D"/>
<path d="M228.5 230.8C228.3 230.1 227.9 221.1 227.8 210.7L227.5 192H236.3C243.2 192 245 192.3 245 193.5C245 194.6 243.4 195 238.3 195.2L231.5 195.5V204.5V213.5L237.8 213.2C244.3 212.8 246.5 214.4 241 215.4C239.4 215.7 236.6 216.3 235 216.6C231.7 217.2 230.6 219.5 231.2 225.1L231.5 228.5L237.8 228.8C242.4 229 244 229.5 244 230.5C244 232.5 229.2 232.7 228.5 230.8Z" fill="#77A97D"/>
<path d="M120.4 170.1C120.4 168.5 123 167.2 135.3 162.9C143.5 160.1 154.3 155.8 159.2 153.4C164.1 151 168.3 149 168.6 149C168.8 149 169 150.1 169 151.6C169 153.7 168.1 154.5 163.7 156.5C158.5 158.8 122.1 172 121 172C120.7 172 120.4 171.1 120.4 170.1Z" fill="#77A97D"/>
<path d="M95.2 143.9L74 117.8V110.8V103.7L83.3 115C88.3 121.3 98 132.9 104.7 140.9L116.9 155.5L117 162.8C117 166.7 116.9 170 116.7 170C116.5 170 106.8 158.3 95.2 143.9Z" fill="#77A97D"/>
<path d="M135.7 154.7C144.6 150 150 145.9 159.8 136.5L166.2 130.5L168.2 133L170.2 135.5L165.6 139.6C160 144.5 148.6 151.2 139.3 155C128.2 159.5 127 159.4 135.7 154.7Z" fill="#77A97D"/>
<path d="M120 157.6C120 157.4 123.9 155.3 128.7 152.9C142.1 146.1 154.4 133.4 158 122.4C159.2 119 159.1 118.9 149.8 107.2C144.7 100.8 136.1 90.1 130.8 83.6C125.4 77.1 121.3 71.3 121.6 70.8C121.9 70.3 122.5 70 123 70.2C123.4 70.4 133.7 81.9 145.8 95.9C170.5 124.2 169.1 121.3 162.1 129.8C155.3 138.2 144 146.9 132.5 152.6C122.2 157.7 120 158.6 120 157.6Z" fill="#77A97D"/>
<path d="M153.301 151.5C157.501 149.1 162.301 146.2 163.901 145.1C167.101 142.8 168.001 142.5 168.001 143.8C168.001 144.7 148.001 156 146.401 156C145.901 156 149.001 154 153.301 151.5Z" fill="#77A97D"/>
<path d="M108 139.7C97.3001 126.7 92.0001 120.2 86.6001 114C79.7001 105.9 75.8001 100.9 76.1001 100.6C76.3001 100.5 78.8001 99.5 81.5001 98.5C94.2001 93.9 101.6 86.8 107.6 73.6L111.4 65L114.1 68.3C134.7 93.4 155 119.4 155 120.9C155 123.7 145.6 137.4 140.7 141.5C136.5 145.1 126.8 151 122 152.8C119.6 153.7 118.8 153 108 139.7Z" fill="#77A97D"/>
<path d="M43.6 30.2C44.1 29.7 45.9 28.8 47.5 28.2C49.2 27.6 59.3 23.7 70 19.6C115.7 2.1 121.3 0 122.7 0C123.9 0 140.7 6.3 184.8 23.2C192.1 26 197.8 28.5 197.6 28.7C197.4 29 184.4 25 168.8 20C153.2 14.9 136.5 9.5 131.5 7.9L122.6 5L91.5 15.1C74.5 20.6 56.5 26.4 51.6 28.1C46.6 29.7 43 30.6 43.6 30.2Z" fill="#77A97D"/>
</svg>
