<svg width="978" height="679" viewBox="0 0 978 679" fill="none" xmlns="http://www.w3.org/2000/svg">
<path d="M978 20.4314C978 11.5948 970.837 4.4314 962 4.4314H487V678.431H962C970.837 678.431 978 671.268 978 662.431V20.4314Z" fill="url(#paint0_linear_306_896)"/>
<path d="M978 16C978 7.16342 970.837 0 962 0H487V678H962C970.837 678 978 670.837 978 662V16Z" fill="url(#paint1_linear_306_896)"/>
<path d="M0 16C0 7.16342 7.16344 0 16 0H490.883V678H16C7.16345 678 0 670.837 0 662V16Z" fill="url(#paint2_linear_306_896)"/>
<rect x="30.1309" y="42.8365" width="920.249" height="584.941" fill="#A09B9B"/>
<rect x="37.6636" y="28.0653" width="905.184" height="624.823" fill="#ACA9A9"/>
<rect x="46" y="24" width="888" height="623" fill="#BCB9B9"/>
<rect x="46" y="15" width="888" height="644" fill="#C2BDBD"/>
<rect x="46" y="15" width="887" height="644" fill="#C2BDBD"/>
<rect x="64" y="10" width="861" height="657" fill="#D6D4D4"/>
<rect x="75" y="10" width="413" height="657" fill="url(#paint3_linear_306_896)"/>
<rect width="430.621" height="657.32" transform="matrix(-1 0 0 1 917.738 10.3398)" fill="url(#paint4_linear_306_896)"/>
<line x1="489.617" y1="10.3398" x2="489.617" y2="667.66" stroke="#A69999" stroke-width="5"/>
<defs>
<linearGradient id="paint0_linear_306_896" x1="963.481" y1="341.431" x2="487" y2="341.431" gradientUnits="userSpaceOnUse">
<stop offset="0.109375" stop-color="#634223" stop-opacity="0.84"/>
<stop offset="0.536458" stop-color="#B08660" stop-opacity="0.78"/>
<stop offset="1" stop-color="#3D1D00"/>
</linearGradient>
<linearGradient id="paint1_linear_306_896" x1="963.481" y1="339" x2="487" y2="339" gradientUnits="userSpaceOnUse">
<stop offset="0.109375" stop-color="#5B432D" stop-opacity="0.84"/>
<stop offset="0.536458" stop-color="#B08660" stop-opacity="0.78"/>
<stop offset="1" stop-color="#3D1D00"/>
</linearGradient>
<linearGradient id="paint2_linear_306_896" x1="14.5154" y1="339" x2="490.883" y2="339" gradientUnits="userSpaceOnUse">
<stop stop-color="#644E3A"/>
<stop offset="0.536458" stop-color="#B08660"/>
<stop offset="1" stop-color="#3D1D00"/>
</linearGradient>
<linearGradient id="paint3_linear_306_896" x1="488" y1="337.741" x2="75" y2="337.741" gradientUnits="userSpaceOnUse">
<stop stop-color="#D6D4D4"/>
<stop offset="0.0001" stop-color="#D6D4D4" stop-opacity="0.87"/>
<stop offset="0.0002" stop-color="#A09696" stop-opacity="0.79648"/>
<stop offset="0.145833" stop-color="#BFB9B9" stop-opacity="0.635364"/>
<stop offset="0.4375" stop-color="white" stop-opacity="0.312688"/>
</linearGradient>
<linearGradient id="paint4_linear_306_896" x1="430.621" y1="327.901" x2="1.0026e-05" y2="327.901" gradientUnits="userSpaceOnUse">
<stop stop-color="#D6D4D4"/>
<stop offset="0.0001" stop-color="#D6D4D4" stop-opacity="0.87"/>
<stop offset="0.0002" stop-color="#A09696" stop-opacity="0.79648"/>
<stop offset="0.145833" stop-color="#BFB9B9" stop-opacity="0.635364"/>
<stop offset="0.4375" stop-color="white" stop-opacity="0.312688"/>
</linearGradient>
</defs>
</svg>
