<svg width="428" height="602" viewBox="0 0 428 602" fill="none" xmlns="http://www.w3.org/2000/svg">
<path d="M405.003 1.34125C415.703 0.557036 424.4 3.54843 426.344 16.8625C425.978 23.6189 424.297 41.0988 424.297 57.922H403.8C400.998 52.7641 395.88 49.3211 390.007 49.3211C381.135 49.3211 373.947 57.1738 373.947 66.9015C373.947 76.6293 381.135 84.5361 390.007 84.5361C395.488 84.5361 400.323 81.5039 403.222 76.9089H425.069L424.683 107.31L402.787 106.877C400.01 101.612 394.844 98.0596 388.898 98.0596C380.026 98.0596 372.838 105.966 372.838 115.694C372.838 125.422 380.026 133.275 388.898 133.275C394.178 133.275 398.847 130.501 401.775 126.188L424.876 126.026L424.297 162.052L399.846 161.89C396.942 157.33 392.136 154.317 386.679 154.317C377.807 154.317 370.571 162.224 370.571 171.952C370.571 181.68 377.807 189.532 386.679 189.532C392.136 189.532 396.942 186.573 399.846 182.013L424.635 182.5V215.443L399.894 215.335C397.258 209.558 391.814 205.598 385.522 205.598C376.65 205.598 369.462 213.505 369.462 223.233C369.462 232.96 376.65 240.813 385.522 240.813C390.033 240.813 394.13 238.795 397.048 235.512L424.539 237.459L424.153 268.834L404.015 268.347C401.265 262.972 396.002 259.367 389.981 259.367C381.109 259.367 373.921 267.274 373.921 277.002C373.921 286.729 381.109 294.582 389.981 294.582C395.811 294.582 400.911 291.185 403.726 286.09L424.683 286.955C425.268 301.52 424.759 310.975 424.876 321.111H404.379C401.577 315.953 396.459 312.51 390.586 312.51C381.714 312.51 374.526 320.363 374.526 330.091C374.526 339.818 381.714 347.725 390.586 347.725C396.067 347.725 400.901 344.693 403.8 340.098H425.648L425.262 370.499L403.366 370.066C400.589 364.801 395.423 361.249 389.476 361.249C380.604 361.249 373.416 369.156 373.416 378.883C373.416 388.611 380.604 396.464 389.476 396.464C394.757 396.464 399.425 393.69 402.353 389.378L425.455 389.215L424.876 425.242L400.424 425.079C397.521 420.519 392.715 417.506 387.258 417.506C378.386 417.506 371.15 425.413 371.15 435.141C371.15 444.869 378.386 452.721 387.258 452.721C392.715 452.721 397.521 449.762 400.424 445.202L425.214 445.689V478.632L400.473 478.524C397.837 472.747 392.392 468.787 386.1 468.787C377.228 468.787 370.04 476.694 370.04 486.422C370.04 496.15 377.228 504.002 386.1 504.002C390.612 504.002 394.709 501.985 397.627 498.701L425.117 500.648L424.731 532.023L400.135 531.536C397.384 526.162 392.121 522.556 386.1 522.556C377.228 522.556 370.04 530.463 370.04 540.191C370.04 549.919 377.228 557.771 386.1 557.771C391.93 557.771 397.03 554.374 399.846 549.279L425.262 550.144L425.117 574.324C425.664 584.63 421.665 598.312 407.67 597.055L23.823 600.381C12.5808 600.449 -0.201402 600.107 1.0901 580.394C3.40227 383.908 0.333385 226.466 1.78595 23.2924C3.23206 7.68928 22.0059 3.54358 30.208 1.05182C49.1874 0.724188 317.651 2.08673 405.003 1.34125Z" fill="white" stroke="#898080" stroke-width="1.5" stroke-linecap="round" stroke-linejoin="round"/>
</svg>
